<svg xmlns="http://www.w3.org/2000/svg" viewBox="0 0 32 32">
  <!-- Background -->
  <rect width="32" height="32" fill="#0a0a0a"/>
  
  <!-- Gravestone body -->
  <rect x="8" y="10" width="16" height="18" fill="#666666"/>
  <rect x="10" y="8" width="12" height="4" fill="#666666"/>
  <rect x="12" y="6" width="8" height="4" fill="#666666"/>
  
  <!-- Gravestone shadow/depth -->
  <rect x="8" y="26" width="16" height="2" fill="#333333"/>
  <rect x="22" y="10" width="2" height="18" fill="#333333"/>
  
  <!-- RIP text (pixel art) -->
  <rect x="11" y="12" width="2" height="6" fill="#00ff00"/>
  <rect x="13" y="12" width="2" height="2" fill="#00ff00"/>
  <rect x="13" y="16" width="2" height="2" fill="#00ff00"/>
  
  <rect x="17" y="12" width="2" height="6" fill="#00ff00"/>
  
  <rect x="21" y="12" width="2" height="6" fill="#00ff00"/>
  <rect x="19" y="12" width="2" height="2" fill="#00ff00"/>
  <rect x="19" y="14" width="4" height="2" fill="#00ff00"/>
  
  <!-- Cross on top -->
  <rect x="14" y="2" width="4" height="2" fill="#00ff00"/>
  <rect x="15" y="1" width="2" height="4" fill="#00ff00"/>
  
  <!-- Ground/grass -->
  <rect x="4" y="28" width="24" height="4" fill="#1a4d1a"/>
  <rect x="6" y="27" width="2" height="1" fill="#1a4d1a"/>
  <rect x="12" y="27" width="2" height="1" fill="#1a4d1a"/>
  <rect x="20" y="27" width="2" height="1" fill="#1a4d1a"/>
</svg>
