<svg xmlns="http://www.w3.org/2000/svg" viewBox="0 0 1200 630" role="img" aria-label="Vibe Graveyard OG - Terminal">
  <defs>
    <linearGradient id="bg" x1="0" y1="0" x2="0" y2="1">
      <stop offset="0%" stop-color="#020202"/>
      <stop offset="100%" stop-color="#0a0a0a"/>
    </linearGradient>
    <filter id="textGlow" x="-40%" y="-40%" width="180%" height="180%">
      <feGaussianBlur stdDeviation="4" result="blur"/>
      <feMerge><feMergeNode in="blur"/><feMergeNode in="SourceGraphic"/></feMerge>
    </filter>
    <pattern id="scan" patternUnits="userSpaceOnUse" width="3" height="3">
      <rect width="3" height="1" fill="#000" fill-opacity="0.18"/>
    </pattern>
  </defs>

  <rect width="1200" height="630" fill="url(#bg)"/>

  <rect x="96" y="64" width="1008" height="500" fill="#050505" stroke="#00ff00" stroke-width="4"/>
  <rect x="96" y="64" width="1008" height="44" fill="#003300"/>
  <circle cx="122" cy="86" r="8" fill="#00ff00"/>
  <circle cx="152" cy="86" r="8" fill="#00aa00"/>
  <circle cx="182" cy="86" r="8" fill="#007700"/>
  <text x="220" y="92" font-family="'Courier New', monospace" font-size="20" fill="#00ff00">vibe-graveyard://terminal</text>

  <text x="128" y="158" font-family="'Courier New', monospace" font-size="26" fill="#00ff00">&gt; booting memorial index...</text>
  <text x="128" y="204" font-family="'Courier New', monospace" font-size="26" fill="#00ff00">&gt; loading abandoned projects... done</text>
  <text x="128" y="250" font-family="'Courier New', monospace" font-size="26" fill="#00ff00">&gt; status: eternally archived</text>

  <text x="128" y="334" font-family="'Courier New', monospace" font-size="86" letter-spacing="6" font-weight="700" fill="#00ff00" filter="url(#textGlow)">VIBE GRAVEYARD</text>
  <text x="128" y="386" font-family="'Courier New', monospace" font-size="30" letter-spacing="2" fill="#00bb00">WHERE ABANDONED PROJECTS REST IN PEACE</text>

  <g transform="translate(124,420)">
    <rect x="0" y="0" width="44" height="44" fill="#00ff00"/>
    <text x="13" y="30" font-family="'Courier New', monospace" font-size="28" fill="#050505" font-weight="700">F</text>
    <text x="60" y="30" font-family="'Courier New', monospace" font-size="24" fill="#00ff00">TO PAY RESPECTS</text>
  </g>

  <g fill="#00ff00" opacity="0.75">
    <rect x="128" y="500" width="8" height="8"/><rect x="146" y="500" width="8" height="8"/><rect x="164" y="500" width="8" height="8"/>
    <rect x="182" y="500" width="8" height="8"/><rect x="200" y="500" width="8" height="8"/>
  </g>

  <rect width="1200" height="630" fill="url(#scan)"/>
</svg>
